<svg width="16" height="36" viewBox="0 0 16 36" fill="none" xmlns="http://www.w3.org/2000/svg">
<path d="M7.98128 35.521C7.32281 35.5193 6.67853 35.3296 6.12425 34.9741L0.410187 31.1405C0.314297 31.0763 0.233845 30.9915 0.174618 30.8924C0.115391 30.7933 0.0788602 30.6824 0.0676543 30.5675C0.0564483 30.4526 0.0708453 30.3366 0.10981 30.2279C0.148774 30.1193 0.211338 30.0206 0.293 29.939L4.16019 26.0726C4.28858 25.9441 4.45771 25.8644 4.6385 25.8472C4.81929 25.8299 5.00044 25.8762 5.15081 25.978L9.84847 29.1632C10.4729 29.5682 10.95 30.1639 11.2086 30.8618C11.4672 31.5597 11.4935 32.3225 11.2837 33.0366C11.0739 33.7507 10.6391 34.3779 10.0441 34.825C9.44904 35.2721 8.72555 35.5151 7.98128 35.5179V35.521ZM2.06956 30.3757L6.97972 33.6679C7.40344 33.9346 7.91575 34.022 8.40393 33.9109C8.89211 33.7999 9.31618 33.4994 9.58284 33.0757C9.84951 32.652 9.93693 32.1397 9.82587 31.6515C9.71482 31.1633 9.41438 30.7392 8.99066 30.4726L4.81253 27.6366L2.06956 30.3757ZM14.2133 11.6374C14.0761 11.6375 13.9413 11.6015 13.8224 11.533C13.7035 11.4645 13.6048 11.3659 13.5362 11.2471C13.4675 11.1283 13.4313 10.9936 13.4313 10.8564C13.4313 10.7192 13.4674 10.5844 13.536 10.4655C14.0102 9.64021 14.2576 8.70412 14.2532 7.75226C14.2546 6.78738 14.0003 5.83936 13.5163 5.00469C13.0322 4.17001 12.3357 3.47849 11.4975 3.0005C10.6593 2.52252 9.70949 2.27514 8.74465 2.28354C7.77981 2.29195 6.83442 2.55584 6.00472 3.04835C5.91665 3.10583 5.81788 3.14493 5.71434 3.16331C5.6108 3.1817 5.5046 3.17899 5.40213 3.15535C5.29966 3.13171 5.20302 3.08762 5.11799 3.02573C5.03297 2.96384 4.96131 2.88543 4.90732 2.79518C4.85333 2.70493 4.81812 2.60471 4.80379 2.50053C4.78946 2.39635 4.79632 2.29035 4.82394 2.18888C4.85156 2.08741 4.89939 1.99256 4.96455 1.91001C5.02972 1.82747 5.11087 1.75893 5.20315 1.70851C6.53809 0.91886 8.09666 0.59276 9.6362 0.78098C11.1757 0.9692 12.6098 1.66118 13.7152 2.74917C14.8206 3.83717 15.5352 5.26012 15.7478 6.79648C15.9604 8.33284 15.659 9.89638 14.8907 11.2437C14.8224 11.3631 14.7238 11.4624 14.6049 11.5316C14.486 11.6007 14.3509 11.6372 14.2133 11.6374Z" fill="#FF6B00"/>
</svg>
